<?xml version="1.0" encoding="UTF-8"?>
<!DOCTYPE svg
PUBLIC "-//W3C//DTD SVG 1.1//EN"
       "http://www.w3.org/Graphics/SVG/1.1/DTD/svg11.dtd">
<svg xmlns:xlink="http://www.w3.org/1999/xlink" xmlns:ibooks="http://www.apple.com/2011/iBooks" width="0" height="0" xmlns="http://www.w3.org/2000/svg"><defs id="SVG_DEFS"><clipPath id="ClipPath-475"><path transform="matrix(1,0,0,1,0,0)" d="M 768 0 L 0 0 L 0 32 L 768 32 Z"/></clipPath><clipPath id="ClipPath-476"><path transform="matrix(1,0,0,1,0,0)" d="M 768 0 L 0 0 L 0 32 L 768 32 Z"/></clipPath><clipPath id="ClipPath-477"><path transform="matrix(1,0,0,1,0,0)" d="M 768 0 L 0 0 L 0 32 L 768 32 Z"/></clipPath><clipPath id="ClipPath-478"><path transform="matrix(1,0,0,1,0,0)" d="M 768 0 L 0 0 L 0 32 L 768 32 Z"/></clipPath><clipPath id="ClipPath-479"><path transform="matrix(1,0,0,1,0,0)" d="M 768 0 L 0 0 L 0 32 L 768 32 Z"/></clipPath><clipPath id="ClipPath-480"><path transform="matrix(1,0,0,1,0,0)" d="M 768 0 L 0 0 L 0 32 L 768 32 Z"/></clipPath><clipPath id="ClipPath-481"><path transform="matrix(1,0,0,1,0,0)" d="M 768 0 L 0 0 L 0 32 L 768 32 Z"/></clipPath><clipPath id="ClipPath-482"><path transform="matrix(1,0,0,1,0,0)" d="M 768 0 L 0 0 L 0 32 L 768 32 Z"/></clipPath><clipPath id="ClipPath-483"><path transform="matrix(1,0,0,1,0,0)" d="M 768 0 L 0 0 L 0 32 L 768 32 Z"/></clipPath><clipPath id="ClipPath-484"><path transform="matrix(1,0,0,1,0,0)" d="M 768 0 L 0 0 L 0 32 L 768 32 Z"/></clipPath><clipPath id="ClipPath-485"><path transform="matrix(1,0,0,1,0,0)" d="M 768 0 L 0 0 L 0 32 L 768 32 Z"/></clipPath></defs></svg>
