<?xml version="1.0" encoding="UTF-8"?>
<!DOCTYPE svg
PUBLIC "-//W3C//DTD SVG 1.1//EN"
       "http://www.w3.org/Graphics/SVG/1.1/DTD/svg11.dtd">
<svg xmlns:xlink="http://www.w3.org/1999/xlink" xmlns:ibooks="http://www.apple.com/2011/iBooks" width="0" height="0" xmlns="http://www.w3.org/2000/svg"><defs id="SVG_DEFS"><clipPath id="ClipPath-575"><path transform="matrix(1,0,0,1,0,0)" d="M 768 0 L 0 0 L 0 32 L 768 32 Z"/></clipPath><clipPath id="ClipPath-576"><path transform="matrix(1,0,0,1,0,0)" d="M 768 0 L 0 0 L 0 32 L 768 32 Z"/></clipPath><clipPath id="ClipPath-577"><path transform="matrix(1,0,0,1,0,0)" d="M 768 0 L 0 0 L 0 32 L 768 32 Z"/></clipPath><clipPath id="ClipPath-578"><path transform="matrix(1,0,0,1,0,0)" d="M 1497 0 L 0 0 L 0 1092 L 1497 1092 Z"/></clipPath><clipPath id="ClipPath-579"><path transform="matrix(1,0,0,1,0,0)" d="M 768 0 L 0 0 L 0 32 L 768 32 Z"/></clipPath><clipPath id="ClipPath-580"><path transform="matrix(1,0,0,1,0,0)" d="M 841 0 L 0 0 L 0 1510 L 841 1510 Z"/></clipPath><clipPath id="ClipPath-581"><path transform="matrix(1,0,0,1,0,0)" d="M 768 0 L 0 0 L 0 32 L 768 32 Z"/></clipPath><clipPath id="ClipPath-582"><path transform="matrix(1,0,0,1,0,0)" d="M 853 0 L 0 0 L 0 1510 L 853 1510 Z"/></clipPath><clipPath id="ClipPath-583"><path transform="matrix(1,0,0,1,0,0)" d="M 768 0 L 0 0 L 0 32 L 768 32 Z"/></clipPath><clipPath id="ClipPath-584"><path transform="matrix(1,0,0,1,0,0)" d="M 381 0 L 0 0 L 0 288 L 381 288 Z"/></clipPath><clipPath id="ClipPath-585"><path transform="matrix(1,0,0,1,0,0)" d="M 768 0 L 0 0 L 0 32 L 768 32 Z"/></clipPath><clipPath id="ClipPath-586"><path transform="matrix(1,0,0,1,0,0)" d="M 768 0 L 0 0 L 0 32 L 768 32 Z"/></clipPath><clipPath id="ClipPath-587"><path transform="matrix(1,0,0,1,0,0)" d="M 768 0 L 0 0 L 0 32 L 768 32 Z"/></clipPath><clipPath id="ClipPath-588"><path transform="matrix(1,0,0,1,0,0)" d="M 768 0 L 0 0 L 0 32 L 768 32 Z"/></clipPath><clipPath id="ClipPath-589"><path transform="matrix(1,0,0,1,0,0)" d="M 768 0 L 0 0 L 0 32 L 768 32 Z"/></clipPath><clipPath id="ClipPath-590"><path transform="matrix(1,0,0,1,0,0)" d="M 518 0 L 0 0 L 0 194 L 518 194 Z"/></clipPath><clipPath id="ClipPath-591"><path transform="matrix(1,0,0,1,0,0)" d="M 768 0 L 0 0 L 0 32 L 768 32 Z"/></clipPath><clipPath id="ClipPath-592"><path transform="matrix(1,0,0,1,0,0)" d="M 802 0 L 0 0 L 0 1524 L 802 1524 Z"/></clipPath><clipPath id="ClipPath-593"><path transform="matrix(1,0,0,1,0,0)" d="M 768 0 L 0 0 L 0 32 L 768 32 Z"/></clipPath><clipPath id="ClipPath-594"><path transform="matrix(1,0,0,1,0,0)" d="M 844 0 L 0 0 L 0 1524 L 844 1524 Z"/></clipPath><clipPath id="ClipPath-595"><path transform="matrix(1,0,0,1,0,0)" d="M 768 0 L 0 0 L 0 32 L 768 32 Z"/></clipPath><clipPath id="ClipPath-596"><path transform="matrix(1,0,0,1,0,0)" d="M 815 0 L 0 0 L 0 1524 L 815 1524 Z"/></clipPath></defs></svg>
