<?xml version="1.0" encoding="UTF-8"?>
<!DOCTYPE svg
PUBLIC "-//W3C//DTD SVG 1.1//EN"
       "http://www.w3.org/Graphics/SVG/1.1/DTD/svg11.dtd">
<svg xmlns:xlink="http://www.w3.org/1999/xlink" xmlns:ibooks="http://www.apple.com/2011/iBooks" width="0" height="0" xmlns="http://www.w3.org/2000/svg"><defs id="SVG_DEFS"><clipPath id="ClipPath-712"><path transform="matrix(1,0,0,1,0,0)" d="M 768 0 L 0 0 L 0 32 L 768 32 Z"/></clipPath><clipPath id="ClipPath-713"><path transform="matrix(1,0,0,1,0,0)" d="M 804 0 L 0 0 L 0 183 L 804 183 Z"/></clipPath><clipPath id="ClipPath-714"><path transform="matrix(1,0,0,1,0,0)" d="M 768 0 L 0 0 L 0 32 L 768 32 Z"/></clipPath><clipPath id="ClipPath-715"><path transform="matrix(1,0,0,1,0,0)" d="M 1722 0 L 0 0 L 0 1254 L 1722 1254 Z"/></clipPath><clipPath id="ClipPath-716"><path transform="matrix(1,0,0,1,0,0)" d="M 768 0 L 0 0 L 0 32 L 768 32 Z"/></clipPath><clipPath id="ClipPath-717"><path transform="matrix(1,0,0,1,0,0)" d="M 574 0 L 0 0 L 0 734 L 574 734 Z"/></clipPath><clipPath id="ClipPath-718"><path transform="matrix(1,0,0,1,0,0)" d="M 768 0 L 0 0 L 0 32 L 768 32 Z"/></clipPath><clipPath id="ClipPath-719"><path transform="matrix(1,0,0,1,0,0)" d="M 377 0 L 0 0 L 0 570 L 377 570 Z"/></clipPath><clipPath id="ClipPath-720"><path transform="matrix(1,0,0,1,0,0)" d="M 768 0 L 0 0 L 0 32 L 768 32 Z"/></clipPath><clipPath id="ClipPath-721"><path transform="matrix(1,0,0,1,0,0)" d="M 383 0 L 0 0 L 0 164 L 383 164 Z"/></clipPath><clipPath id="ClipPath-722"><path transform="matrix(1,0,0,1,0,0)" d="M 768 0 L 0 0 L 0 32 L 768 32 Z"/></clipPath><clipPath id="ClipPath-723"><path transform="matrix(1,0,0,1,0,0)" d="M 1661 0 L 0 0 L 0 1234 L 1661 1234 Z"/></clipPath><clipPath id="ClipPath-724"><path transform="matrix(1,0,0,1,0,0)" d="M 768 0 L 0 0 L 0 32 L 768 32 Z"/></clipPath><clipPath id="ClipPath-725"><path transform="matrix(1,0,0,1,0,0)" d="M 433 0 L 0 0 L 0 429 L 433 429 Z"/></clipPath><clipPath id="ClipPath-726"><path transform="matrix(1,0,0,1,0,0)" d="M 522 0 L 0 0 L 0 194 L 522 194 Z"/></clipPath><clipPath id="ClipPath-727"><path transform="matrix(1,0,0,1,0,0)" d="M 768 0 L 0 0 L 0 32 L 768 32 Z"/></clipPath><clipPath id="ClipPath-728"><path transform="matrix(1,0,0,1,0,0)" d="M 524 0 L 0 0 L 0 356 L 524 356 Z"/></clipPath><clipPath id="ClipPath-729"><path transform="matrix(1,0,0,1,0,0)" d="M 505 0 L 0 0 L 0 469 L 505 469 Z"/></clipPath><clipPath id="ClipPath-730"><path transform="matrix(1,0,0,1,0,0)" d="M 768 0 L 0 0 L 0 32 L 768 32 Z"/></clipPath><clipPath id="ClipPath-731"><path transform="matrix(1,0,0,1,0,0)" d="M 554 0 L 0 0 L 0 735 L 554 735 Z"/></clipPath><clipPath id="ClipPath-732"><path transform="matrix(1,0,0,1,0,0)" d="M 768 0 L 0 0 L 0 32 L 768 32 Z"/></clipPath><clipPath id="ClipPath-733"><path transform="matrix(1,0,0,1,0,0)" d="M 506 0 L 0 0 L 0 946 L 506 946 Z"/></clipPath><clipPath id="ClipPath-734"><path transform="matrix(1,0,0,1,0,0)" d="M 768 0 L 0 0 L 0 32 L 768 32 Z"/></clipPath><clipPath id="ClipPath-735"><path transform="matrix(1,0,0,1,0,0)" d="M 487 0 L 0 0 L 0 1524 L 487 1524 Z"/></clipPath><clipPath id="ClipPath-736"><path transform="matrix(1,0,0,1,0,0)" d="M 768 0 L 0 0 L 0 32 L 768 32 Z"/></clipPath><clipPath id="ClipPath-737"><path transform="matrix(1,0,0,1,0,-0)" d="M 1689 0 L 0 0 L 0 1247 L 1689 1247 Z"/></clipPath><clipPath id="ClipPath-738"><path transform="matrix(1,0,0,1,0,0)" d="M 768 0 L 0 0 L 0 32 L 768 32 Z"/></clipPath><clipPath id="ClipPath-739"><path transform="matrix(1,0,0,1,0,0)" d="M 768 0 L 0 0 L 0 32 L 768 32 Z"/></clipPath><clipPath id="ClipPath-740"><path transform="matrix(1,0,0,1,0,0)" d="M 1986 0 L 0 0 L 0 819 L 1986 819 Z"/></clipPath><clipPath id="ClipPath-741"><path transform="matrix(1,0,0,1,0,0)" d="M 768 0 L 0 0 L 0 32 L 768 32 Z"/></clipPath><clipPath id="ClipPath-742"><path transform="matrix(1,0,0,1,0,0)" d="M 2045 0 L 0 0 L 0 611 L 2045 611 Z"/></clipPath><clipPath id="ClipPath-743"><path transform="matrix(1,0,0,1,0,0)" d="M 768 0 L 0 0 L 0 32 L 768 32 Z"/></clipPath><clipPath id="ClipPath-744"><path transform="matrix(1,0,0,1,0,0)" d="M 768 0 L 0 0 L 0 32 L 768 32 Z"/></clipPath><clipPath id="ClipPath-745"><path transform="matrix(1,0,0,1,0,0)" d="M 768 0 L 0 0 L 0 32 L 768 32 Z"/></clipPath><clipPath id="ClipPath-746"><path transform="matrix(1,0,0,1,0,0)" d="M 768 0 L 0 0 L 0 32 L 768 32 Z"/></clipPath><clipPath id="ClipPath-747"><path transform="matrix(1,0,0,1,0,0)" d="M 768 0 L 0 0 L 0 32 L 768 32 Z"/></clipPath><clipPath id="ClipPath-748"><path transform="matrix(1,0,0,1,0,0)" d="M 768 0 L 0 0 L 0 32 L 768 32 Z"/></clipPath><clipPath id="ClipPath-749"><path transform="matrix(1,0,0,1,0,0)" d="M 768 0 L 0 0 L 0 32 L 768 32 Z"/></clipPath><clipPath id="ClipPath-750"><path transform="matrix(1,0,0,1,0,0)" d="M 768 0 L 0 0 L 0 32 L 768 32 Z"/></clipPath><clipPath id="ClipPath-751"><path transform="matrix(1,0,0,1,0,0)" d="M 768 0 L 0 0 L 0 32 L 768 32 Z"/></clipPath><clipPath id="ClipPath-752"><path transform="matrix(1,0,0,1,0,0)" d="M 768 0 L 0 0 L 0 32 L 768 32 Z"/></clipPath><clipPath id="ClipPath-753"><path transform="matrix(1,0,0,1,0,0)" d="M 768 0 L 0 0 L 0 32 L 768 32 Z"/></clipPath><clipPath id="ClipPath-754"><path transform="matrix(1,0,0,1,0,0)" d="M 768 0 L 0 0 L 0 32 L 768 32 Z"/></clipPath><clipPath id="ClipPath-755"><path transform="matrix(1,0,0,1,0,0)" d="M 768 0 L 0 0 L 0 32 L 768 32 Z"/></clipPath></defs></svg>
