<?xml version="1.0" encoding="UTF-8"?>
<!DOCTYPE svg
PUBLIC "-//W3C//DTD SVG 1.1//EN"
       "http://www.w3.org/Graphics/SVG/1.1/DTD/svg11.dtd">
<svg xmlns:xlink="http://www.w3.org/1999/xlink" xmlns:ibooks="http://www.apple.com/2011/iBooks" width="0" height="0" xmlns="http://www.w3.org/2000/svg"><defs id="SVG_DEFS"><clipPath id="ClipPath-553"><path transform="matrix(1,0,0,1,0,0)" d="M 768 0 L 0 0 L 0 32 L 768 32 Z"/></clipPath><clipPath id="ClipPath-554"><path transform="matrix(1,0,0,1,0,0)" d="M 768 0 L 0 0 L 0 32 L 768 32 Z"/></clipPath><linearGradient id="SVG_DEF_1" x1="50.0%" y1="0.0%" x2="50.0%" y2="100.0%"><stop stop-color="#F8F8F8" offset="0.0%"/><stop stop-color="#FFFFFF" offset="100.0%"/></linearGradient><linearGradient id="SVG_DEF_2" x1="50.0%" y1="0.0%" x2="50.0%" y2="100.0%"><stop stop-color="#F9F9F9" offset="0.0%"/><stop stop-color="#DDDDDD" offset="100.0%"/></linearGradient><marker id="SVG_DEF_3" ibooks:markerId="open circle" markerUnits="strokeWidth" refX="3.000" refY="-0.300" viewBox="0.500 0.500 5.000 5.000" preserveAspectRatio="none" markerWidth="5.000" markerHeight="5.000"><path fill="none" d="M 4.767767 1.232233 C 5.744078 2.208544 5.744078 3.791456 4.767767 4.767767 C 3.791456 5.744078 2.208544 5.744078 1.232233 4.767767 C 0.255922 3.791456 0.255922 2.208544 1.232233 1.232233 C 2.208544 0.255922 3.791456 0.255922 4.767767 1.232233"/></marker><marker id="SVG_DEF_4" ibooks:markerId="open circle" markerUnits="strokeWidth" refX="3.000" refY="-0.300" viewBox="0.500 0.500 5.000 5.000" preserveAspectRatio="none" markerWidth="5.000" markerHeight="5.000"><path fill="none" d="M 4.767767 1.232233 C 5.744078 2.208544 5.744078 3.791456 4.767767 4.767767 C 3.791456 5.744078 2.208544 5.744078 1.232233 4.767767 C 0.255922 3.791456 0.255922 2.208544 1.232233 1.232233 C 2.208544 0.255922 3.791456 0.255922 4.767767 1.232233"/></marker><marker id="SVG_DEF_5" ibooks:markerId="open circle" markerUnits="strokeWidth" refX="3.000" refY="-0.300" viewBox="0.500 0.500 5.000 5.000" preserveAspectRatio="none" markerWidth="5.000" markerHeight="5.000"><path fill="none" d="M 4.767767 1.232233 C 5.744078 2.208544 5.744078 3.791456 4.767767 4.767767 C 3.791456 5.744078 2.208544 5.744078 1.232233 4.767767 C 0.255922 3.791456 0.255922 2.208544 1.232233 1.232233 C 2.208544 0.255922 3.791456 0.255922 4.767767 1.232233"/></marker><clipPath id="ClipPath-555"><path transform="matrix(1,0,0,1,0,0)" d="M 768 0 L 0 0 L 0 32 L 768 32 Z"/></clipPath><marker id="SVG_DEF_6" ibooks:markerId="open circle" markerUnits="strokeWidth" refX="3.000" refY="-0.300" viewBox="0.500 0.500 5.000 5.000" preserveAspectRatio="none" markerWidth="5.000" markerHeight="5.000"><path fill="none" d="M 4.767767 1.232233 C 5.744078 2.208544 5.744078 3.791456 4.767767 4.767767 C 3.791456 5.744078 2.208544 5.744078 1.232233 4.767767 C 0.255922 3.791456 0.255922 2.208544 1.232233 1.232233 C 2.208544 0.255922 3.791456 0.255922 4.767767 1.232233"/></marker><marker id="SVG_DEF_7" ibooks:markerId="open circle" markerUnits="strokeWidth" refX="3.000" refY="-0.300" viewBox="0.500 0.500 5.000 5.000" preserveAspectRatio="none" markerWidth="5.000" markerHeight="5.000"><path fill="none" d="M 4.767767 1.232233 C 5.744078 2.208544 5.744078 3.791456 4.767767 4.767767 C 3.791456 5.744078 2.208544 5.744078 1.232233 4.767767 C 0.255922 3.791456 0.255922 2.208544 1.232233 1.232233 C 2.208544 0.255922 3.791456 0.255922 4.767767 1.232233"/></marker><marker id="SVG_DEF_8" ibooks:markerId="open circle" markerUnits="strokeWidth" refX="3.000" refY="-0.300" viewBox="0.500 0.500 5.000 5.000" preserveAspectRatio="none" markerWidth="5.000" markerHeight="5.000"><path fill="none" d="M 4.767767 1.232233 C 5.744078 2.208544 5.744078 3.791456 4.767767 4.767767 C 3.791456 5.744078 2.208544 5.744078 1.232233 4.767767 C 0.255922 3.791456 0.255922 2.208544 1.232233 1.232233 C 2.208544 0.255922 3.791456 0.255922 4.767767 1.232233"/></marker><marker id="SVG_DEF_9" ibooks:markerId="open circle" markerUnits="strokeWidth" refX="3.000" refY="-0.300" viewBox="0.500 0.500 5.000 5.000" preserveAspectRatio="none" markerWidth="5.000" markerHeight="5.000"><path fill="none" d="M 4.767767 1.232233 C 5.744078 2.208544 5.744078 3.791456 4.767767 4.767767 C 3.791456 5.744078 2.208544 5.744078 1.232233 4.767767 C 0.255922 3.791456 0.255922 2.208544 1.232233 1.232233 C 2.208544 0.255922 3.791456 0.255922 4.767767 1.232233"/></marker><marker id="SVG_DEF_10" ibooks:markerId="open circle" markerUnits="strokeWidth" refX="3.000" refY="-0.300" viewBox="0.500 0.500 5.000 5.000" preserveAspectRatio="none" markerWidth="5.000" markerHeight="5.000"><path fill="none" d="M 4.767767 1.232233 C 5.744078 2.208544 5.744078 3.791456 4.767767 4.767767 C 3.791456 5.744078 2.208544 5.744078 1.232233 4.767767 C 0.255922 3.791456 0.255922 2.208544 1.232233 1.232233 C 2.208544 0.255922 3.791456 0.255922 4.767767 1.232233"/></marker><clipPath id="ClipPath-556"><path transform="matrix(1,0,0,1,0,0)" d="M 768 0 L 0 0 L 0 32 L 768 32 Z"/></clipPath><marker id="SVG_DEF_11" ibooks:markerId="open circle" markerUnits="strokeWidth" refX="3.000" refY="-0.300" viewBox="0.500 0.500 5.000 5.000" preserveAspectRatio="none" markerWidth="5.000" markerHeight="5.000"><path fill="none" d="M 4.767767 1.232233 C 5.744078 2.208544 5.744078 3.791456 4.767767 4.767767 C 3.791456 5.744078 2.208544 5.744078 1.232233 4.767767 C 0.255922 3.791456 0.255922 2.208544 1.232233 1.232233 C 2.208544 0.255922 3.791456 0.255922 4.767767 1.232233"/></marker><marker id="SVG_DEF_12" ibooks:markerId="open circle" markerUnits="strokeWidth" refX="3.000" refY="-0.300" viewBox="0.500 0.500 5.000 5.000" preserveAspectRatio="none" markerWidth="5.000" markerHeight="5.000"><path fill="none" d="M 4.767767 1.232233 C 5.744078 2.208544 5.744078 3.791456 4.767767 4.767767 C 3.791456 5.744078 2.208544 5.744078 1.232233 4.767767 C 0.255922 3.791456 0.255922 2.208544 1.232233 1.232233 C 2.208544 0.255922 3.791456 0.255922 4.767767 1.232233"/></marker><clipPath id="ClipPath-557"><path transform="matrix(1,0,0,1,0,0)" d="M 768 0 L 0 0 L 0 32 L 768 32 Z"/></clipPath><marker id="SVG_DEF_13" ibooks:markerId="open circle" markerUnits="strokeWidth" refX="3.000" refY="-0.300" viewBox="0.500 0.500 5.000 5.000" preserveAspectRatio="none" markerWidth="5.000" markerHeight="5.000"><path fill="none" d="M 4.767767 1.232233 C 5.744078 2.208544 5.744078 3.791456 4.767767 4.767767 C 3.791456 5.744078 2.208544 5.744078 1.232233 4.767767 C 0.255922 3.791456 0.255922 2.208544 1.232233 1.232233 C 2.208544 0.255922 3.791456 0.255922 4.767767 1.232233"/></marker><marker id="SVG_DEF_14" ibooks:markerId="open circle" markerUnits="strokeWidth" refX="3.000" refY="-0.300" viewBox="0.500 0.500 5.000 5.000" preserveAspectRatio="none" markerWidth="5.000" markerHeight="5.000"><path fill="none" d="M 4.767767 1.232233 C 5.744078 2.208544 5.744078 3.791456 4.767767 4.767767 C 3.791456 5.744078 2.208544 5.744078 1.232233 4.767767 C 0.255922 3.791456 0.255922 2.208544 1.232233 1.232233 C 2.208544 0.255922 3.791456 0.255922 4.767767 1.232233"/></marker><marker id="SVG_DEF_15" ibooks:markerId="open circle" markerUnits="strokeWidth" refX="3.000" refY="-0.300" viewBox="0.500 0.500 5.000 5.000" preserveAspectRatio="none" markerWidth="5.000" markerHeight="5.000"><path fill="none" d="M 4.767767 1.232233 C 5.744078 2.208544 5.744078 3.791456 4.767767 4.767767 C 3.791456 5.744078 2.208544 5.744078 1.232233 4.767767 C 0.255922 3.791456 0.255922 2.208544 1.232233 1.232233 C 2.208544 0.255922 3.791456 0.255922 4.767767 1.232233"/></marker><marker id="SVG_DEF_16" ibooks:markerId="open circle" markerUnits="strokeWidth" refX="3.000" refY="-0.300" viewBox="0.500 0.500 5.000 5.000" preserveAspectRatio="none" markerWidth="5.000" markerHeight="5.000"><path fill="none" d="M 4.767767 1.232233 C 5.744078 2.208544 5.744078 3.791456 4.767767 4.767767 C 3.791456 5.744078 2.208544 5.744078 1.232233 4.767767 C 0.255922 3.791456 0.255922 2.208544 1.232233 1.232233 C 2.208544 0.255922 3.791456 0.255922 4.767767 1.232233"/></marker><marker id="SVG_DEF_17" ibooks:markerId="open circle" markerUnits="strokeWidth" refX="3.000" refY="-0.300" viewBox="0.500 0.500 5.000 5.000" preserveAspectRatio="none" markerWidth="5.000" markerHeight="5.000"><path fill="none" d="M 4.767767 1.232233 C 5.744078 2.208544 5.744078 3.791456 4.767767 4.767767 C 3.791456 5.744078 2.208544 5.744078 1.232233 4.767767 C 0.255922 3.791456 0.255922 2.208544 1.232233 1.232233 C 2.208544 0.255922 3.791456 0.255922 4.767767 1.232233"/></marker><clipPath id="ClipPath-558"><path transform="matrix(1,0,0,1,0,0)" d="M 768 0 L 0 0 L 0 32 L 768 32 Z"/></clipPath><clipPath id="ClipPath-559"><path transform="matrix(1,0,0,1,0,0)" d="M 768 0 L 0 0 L 0 32 L 768 32 Z"/></clipPath><marker id="SVG_DEF_18" ibooks:markerId="open circle" markerUnits="strokeWidth" refX="3.000" refY="-0.300" viewBox="0.500 0.500 5.000 5.000" preserveAspectRatio="none" markerWidth="5.000" markerHeight="5.000"><path fill="none" d="M 4.767767 1.232233 C 5.744078 2.208544 5.744078 3.791456 4.767767 4.767767 C 3.791456 5.744078 2.208544 5.744078 1.232233 4.767767 C 0.255922 3.791456 0.255922 2.208544 1.232233 1.232233 C 2.208544 0.255922 3.791456 0.255922 4.767767 1.232233"/></marker><marker id="SVG_DEF_19" ibooks:markerId="open circle" markerUnits="strokeWidth" refX="3.000" refY="-0.300" viewBox="0.500 0.500 5.000 5.000" preserveAspectRatio="none" markerWidth="5.000" markerHeight="5.000"><path fill="none" d="M 4.767767 1.232233 C 5.744078 2.208544 5.744078 3.791456 4.767767 4.767767 C 3.791456 5.744078 2.208544 5.744078 1.232233 4.767767 C 0.255922 3.791456 0.255922 2.208544 1.232233 1.232233 C 2.208544 0.255922 3.791456 0.255922 4.767767 1.232233"/></marker><marker id="SVG_DEF_20" ibooks:markerId="open circle" markerUnits="strokeWidth" refX="3.000" refY="-0.300" viewBox="0.500 0.500 5.000 5.000" preserveAspectRatio="none" markerWidth="5.000" markerHeight="5.000"><path fill="none" d="M 4.767767 1.232233 C 5.744078 2.208544 5.744078 3.791456 4.767767 4.767767 C 3.791456 5.744078 2.208544 5.744078 1.232233 4.767767 C 0.255922 3.791456 0.255922 2.208544 1.232233 1.232233 C 2.208544 0.255922 3.791456 0.255922 4.767767 1.232233"/></marker><marker id="SVG_DEF_21" ibooks:markerId="open circle" markerUnits="strokeWidth" refX="3.000" refY="-0.300" viewBox="0.500 0.500 5.000 5.000" preserveAspectRatio="none" markerWidth="5.000" markerHeight="5.000"><path fill="none" d="M 4.767767 1.232233 C 5.744078 2.208544 5.744078 3.791456 4.767767 4.767767 C 3.791456 5.744078 2.208544 5.744078 1.232233 4.767767 C 0.255922 3.791456 0.255922 2.208544 1.232233 1.232233 C 2.208544 0.255922 3.791456 0.255922 4.767767 1.232233"/></marker><marker id="SVG_DEF_22" ibooks:markerId="open circle" markerUnits="strokeWidth" refX="3.000" refY="-0.300" viewBox="0.500 0.500 5.000 5.000" preserveAspectRatio="none" markerWidth="5.000" markerHeight="5.000"><path fill="none" d="M 4.767767 1.232233 C 5.744078 2.208544 5.744078 3.791456 4.767767 4.767767 C 3.791456 5.744078 2.208544 5.744078 1.232233 4.767767 C 0.255922 3.791456 0.255922 2.208544 1.232233 1.232233 C 2.208544 0.255922 3.791456 0.255922 4.767767 1.232233"/></marker><clipPath id="ClipPath-560"><path transform="matrix(1,0,0,1,0,0)" d="M 768 0 L 0 0 L 0 32 L 768 32 Z"/></clipPath><clipPath id="ClipPath-561"><path transform="matrix(1,0,0,1,0,0)" d="M 768 0 L 0 0 L 0 32 L 768 32 Z"/></clipPath><clipPath id="ClipPath-562"><path transform="matrix(1,0,0,1,0,0)" d="M 768 0 L 0 0 L 0 32 L 768 32 Z"/></clipPath><clipPath id="ClipPath-563"><path transform="matrix(1,0,0,1,0,0)" d="M 768 0 L 0 0 L 0 32 L 768 32 Z"/></clipPath><marker id="SVG_DEF_23" ibooks:markerId="open circle" markerUnits="strokeWidth" refX="3.000" refY="-0.300" viewBox="0.500 0.500 5.000 5.000" preserveAspectRatio="none" markerWidth="5.000" markerHeight="5.000"><path fill="none" d="M 4.767767 1.232233 C 5.744078 2.208544 5.744078 3.791456 4.767767 4.767767 C 3.791456 5.744078 2.208544 5.744078 1.232233 4.767767 C 0.255922 3.791456 0.255922 2.208544 1.232233 1.232233 C 2.208544 0.255922 3.791456 0.255922 4.767767 1.232233"/></marker><marker id="SVG_DEF_24" ibooks:markerId="open circle" markerUnits="strokeWidth" refX="3.000" refY="-0.300" viewBox="0.500 0.500 5.000 5.000" preserveAspectRatio="none" markerWidth="5.000" markerHeight="5.000"><path fill="none" d="M 4.767767 1.232233 C 5.744078 2.208544 5.744078 3.791456 4.767767 4.767767 C 3.791456 5.744078 2.208544 5.744078 1.232233 4.767767 C 0.255922 3.791456 0.255922 2.208544 1.232233 1.232233 C 2.208544 0.255922 3.791456 0.255922 4.767767 1.232233"/></marker><marker id="SVG_DEF_25" ibooks:markerId="open circle" markerUnits="strokeWidth" refX="3.000" refY="-0.300" viewBox="0.500 0.500 5.000 5.000" preserveAspectRatio="none" markerWidth="5.000" markerHeight="5.000"><path fill="none" d="M 4.767767 1.232233 C 5.744078 2.208544 5.744078 3.791456 4.767767 4.767767 C 3.791456 5.744078 2.208544 5.744078 1.232233 4.767767 C 0.255922 3.791456 0.255922 2.208544 1.232233 1.232233 C 2.208544 0.255922 3.791456 0.255922 4.767767 1.232233"/></marker><marker id="SVG_DEF_26" ibooks:markerId="open circle" markerUnits="strokeWidth" refX="3.000" refY="-0.300" viewBox="0.500 0.500 5.000 5.000" preserveAspectRatio="none" markerWidth="5.000" markerHeight="5.000"><path fill="none" d="M 4.767767 1.232233 C 5.744078 2.208544 5.744078 3.791456 4.767767 4.767767 C 3.791456 5.744078 2.208544 5.744078 1.232233 4.767767 C 0.255922 3.791456 0.255922 2.208544 1.232233 1.232233 C 2.208544 0.255922 3.791456 0.255922 4.767767 1.232233"/></marker><marker id="SVG_DEF_27" ibooks:markerId="open circle" markerUnits="strokeWidth" refX="3.000" refY="-0.300" viewBox="0.500 0.500 5.000 5.000" preserveAspectRatio="none" markerWidth="5.000" markerHeight="5.000"><path fill="none" d="M 4.767767 1.232233 C 5.744078 2.208544 5.744078 3.791456 4.767767 4.767767 C 3.791456 5.744078 2.208544 5.744078 1.232233 4.767767 C 0.255922 3.791456 0.255922 2.208544 1.232233 1.232233 C 2.208544 0.255922 3.791456 0.255922 4.767767 1.232233"/></marker><clipPath id="ClipPath-564"><path transform="matrix(1,0,0,1,0,0)" d="M 768 0 L 0 0 L 0 32 L 768 32 Z"/></clipPath><clipPath id="ClipPath-565"><path transform="matrix(1,0,0,1,0,0)" d="M 768 0 L 0 0 L 0 32 L 768 32 Z"/></clipPath><clipPath id="ClipPath-566"><path transform="matrix(1,0,0,1,0,0)" d="M 768 0 L 0 0 L 0 32 L 768 32 Z"/></clipPath><clipPath id="ClipPath-567"><path transform="matrix(1,0,0,1,0,0)" d="M 768 0 L 0 0 L 0 32 L 768 32 Z"/></clipPath><clipPath id="ClipPath-568"><path transform="matrix(1,0,0,1,0,0)" d="M 768 0 L 0 0 L 0 32 L 768 32 Z"/></clipPath><marker id="SVG_DEF_28" ibooks:markerId="open circle" markerUnits="strokeWidth" refX="3.000" refY="-0.300" viewBox="0.500 0.500 5.000 5.000" preserveAspectRatio="none" markerWidth="5.000" markerHeight="5.000"><path fill="none" d="M 4.767767 1.232233 C 5.744078 2.208544 5.744078 3.791456 4.767767 4.767767 C 3.791456 5.744078 2.208544 5.744078 1.232233 4.767767 C 0.255922 3.791456 0.255922 2.208544 1.232233 1.232233 C 2.208544 0.255922 3.791456 0.255922 4.767767 1.232233"/></marker><marker id="SVG_DEF_29" ibooks:markerId="open circle" markerUnits="strokeWidth" refX="3.000" refY="-0.300" viewBox="0.500 0.500 5.000 5.000" preserveAspectRatio="none" markerWidth="5.000" markerHeight="5.000"><path fill="none" d="M 4.767767 1.232233 C 5.744078 2.208544 5.744078 3.791456 4.767767 4.767767 C 3.791456 5.744078 2.208544 5.744078 1.232233 4.767767 C 0.255922 3.791456 0.255922 2.208544 1.232233 1.232233 C 2.208544 0.255922 3.791456 0.255922 4.767767 1.232233"/></marker><marker id="SVG_DEF_30" ibooks:markerId="open circle" markerUnits="strokeWidth" refX="3.000" refY="-0.300" viewBox="0.500 0.500 5.000 5.000" preserveAspectRatio="none" markerWidth="5.000" markerHeight="5.000"><path fill="none" d="M 4.767767 1.232233 C 5.744078 2.208544 5.744078 3.791456 4.767767 4.767767 C 3.791456 5.744078 2.208544 5.744078 1.232233 4.767767 C 0.255922 3.791456 0.255922 2.208544 1.232233 1.232233 C 2.208544 0.255922 3.791456 0.255922 4.767767 1.232233"/></marker><marker id="SVG_DEF_31" ibooks:markerId="open circle" markerUnits="strokeWidth" refX="3.000" refY="-0.300" viewBox="0.500 0.500 5.000 5.000" preserveAspectRatio="none" markerWidth="5.000" markerHeight="5.000"><path fill="none" d="M 4.767767 1.232233 C 5.744078 2.208544 5.744078 3.791456 4.767767 4.767767 C 3.791456 5.744078 2.208544 5.744078 1.232233 4.767767 C 0.255922 3.791456 0.255922 2.208544 1.232233 1.232233 C 2.208544 0.255922 3.791456 0.255922 4.767767 1.232233"/></marker><marker id="SVG_DEF_32" ibooks:markerId="open circle" markerUnits="strokeWidth" refX="3.000" refY="-0.300" viewBox="0.500 0.500 5.000 5.000" preserveAspectRatio="none" markerWidth="5.000" markerHeight="5.000"><path fill="none" d="M 4.767767 1.232233 C 5.744078 2.208544 5.744078 3.791456 4.767767 4.767767 C 3.791456 5.744078 2.208544 5.744078 1.232233 4.767767 C 0.255922 3.791456 0.255922 2.208544 1.232233 1.232233 C 2.208544 0.255922 3.791456 0.255922 4.767767 1.232233"/></marker><marker id="SVG_DEF_33" ibooks:markerId="open circle" markerUnits="strokeWidth" refX="3.000" refY="-0.300" viewBox="0.500 0.500 5.000 5.000" preserveAspectRatio="none" markerWidth="5.000" markerHeight="5.000"><path fill="none" d="M 4.767767 1.232233 C 5.744078 2.208544 5.744078 3.791456 4.767767 4.767767 C 3.791456 5.744078 2.208544 5.744078 1.232233 4.767767 C 0.255922 3.791456 0.255922 2.208544 1.232233 1.232233 C 2.208544 0.255922 3.791456 0.255922 4.767767 1.232233"/></marker><marker id="SVG_DEF_34" ibooks:markerId="open circle" markerUnits="strokeWidth" refX="3.000" refY="-0.300" viewBox="0.500 0.500 5.000 5.000" preserveAspectRatio="none" markerWidth="5.000" markerHeight="5.000"><path fill="none" d="M 4.767767 1.232233 C 5.744078 2.208544 5.744078 3.791456 4.767767 4.767767 C 3.791456 5.744078 2.208544 5.744078 1.232233 4.767767 C 0.255922 3.791456 0.255922 2.208544 1.232233 1.232233 C 2.208544 0.255922 3.791456 0.255922 4.767767 1.232233"/></marker><clipPath id="ClipPath-569"><path transform="matrix(1,0,0,1,0,0)" d="M 768 0 L 0 0 L 0 32 L 768 32 Z"/></clipPath><marker id="SVG_DEF_35" ibooks:markerId="open circle" markerUnits="strokeWidth" refX="3.000" refY="-0.300" viewBox="0.500 0.500 5.000 5.000" preserveAspectRatio="none" markerWidth="5.000" markerHeight="5.000"><path fill="none" d="M 4.767767 1.232233 C 5.744078 2.208544 5.744078 3.791456 4.767767 4.767767 C 3.791456 5.744078 2.208544 5.744078 1.232233 4.767767 C 0.255922 3.791456 0.255922 2.208544 1.232233 1.232233 C 2.208544 0.255922 3.791456 0.255922 4.767767 1.232233"/></marker><marker id="SVG_DEF_36" ibooks:markerId="open circle" markerUnits="strokeWidth" refX="3.000" refY="-0.300" viewBox="0.500 0.500 5.000 5.000" preserveAspectRatio="none" markerWidth="5.000" markerHeight="5.000"><path fill="none" d="M 4.767767 1.232233 C 5.744078 2.208544 5.744078 3.791456 4.767767 4.767767 C 3.791456 5.744078 2.208544 5.744078 1.232233 4.767767 C 0.255922 3.791456 0.255922 2.208544 1.232233 1.232233 C 2.208544 0.255922 3.791456 0.255922 4.767767 1.232233"/></marker><marker id="SVG_DEF_37" ibooks:markerId="open circle" markerUnits="strokeWidth" refX="3.000" refY="-0.300" viewBox="0.500 0.500 5.000 5.000" preserveAspectRatio="none" markerWidth="5.000" markerHeight="5.000"><path fill="none" d="M 4.767767 1.232233 C 5.744078 2.208544 5.744078 3.791456 4.767767 4.767767 C 3.791456 5.744078 2.208544 5.744078 1.232233 4.767767 C 0.255922 3.791456 0.255922 2.208544 1.232233 1.232233 C 2.208544 0.255922 3.791456 0.255922 4.767767 1.232233"/></marker><marker id="SVG_DEF_38" ibooks:markerId="open circle" markerUnits="strokeWidth" refX="3.000" refY="-0.300" viewBox="0.500 0.500 5.000 5.000" preserveAspectRatio="none" markerWidth="5.000" markerHeight="5.000"><path fill="none" d="M 4.767767 1.232233 C 5.744078 2.208544 5.744078 3.791456 4.767767 4.767767 C 3.791456 5.744078 2.208544 5.744078 1.232233 4.767767 C 0.255922 3.791456 0.255922 2.208544 1.232233 1.232233 C 2.208544 0.255922 3.791456 0.255922 4.767767 1.232233"/></marker><marker id="SVG_DEF_39" ibooks:markerId="open circle" markerUnits="strokeWidth" refX="3.000" refY="-0.300" viewBox="0.500 0.500 5.000 5.000" preserveAspectRatio="none" markerWidth="5.000" markerHeight="5.000"><path fill="none" d="M 4.767767 1.232233 C 5.744078 2.208544 5.744078 3.791456 4.767767 4.767767 C 3.791456 5.744078 2.208544 5.744078 1.232233 4.767767 C 0.255922 3.791456 0.255922 2.208544 1.232233 1.232233 C 2.208544 0.255922 3.791456 0.255922 4.767767 1.232233"/></marker><clipPath id="ClipPath-570"><path transform="matrix(1,0,0,1,0,0)" d="M 768 0 L 0 0 L 0 32 L 768 32 Z"/></clipPath><marker id="SVG_DEF_40" ibooks:markerId="open circle" markerUnits="strokeWidth" refX="3.000" refY="-0.300" viewBox="0.500 0.500 5.000 5.000" preserveAspectRatio="none" markerWidth="5.000" markerHeight="5.000"><path fill="none" d="M 4.767767 1.232233 C 5.744078 2.208544 5.744078 3.791456 4.767767 4.767767 C 3.791456 5.744078 2.208544 5.744078 1.232233 4.767767 C 0.255922 3.791456 0.255922 2.208544 1.232233 1.232233 C 2.208544 0.255922 3.791456 0.255922 4.767767 1.232233"/></marker><clipPath id="ClipPath-571"><path transform="matrix(1,0,0,1,0,0)" d="M 768 0 L 0 0 L 0 32 L 768 32 Z"/></clipPath><marker id="SVG_DEF_41" ibooks:markerId="open circle" markerUnits="strokeWidth" refX="3.000" refY="-0.300" viewBox="0.500 0.500 5.000 5.000" preserveAspectRatio="none" markerWidth="5.000" markerHeight="5.000"><path fill="none" d="M 4.767767 1.232233 C 5.744078 2.208544 5.744078 3.791456 4.767767 4.767767 C 3.791456 5.744078 2.208544 5.744078 1.232233 4.767767 C 0.255922 3.791456 0.255922 2.208544 1.232233 1.232233 C 2.208544 0.255922 3.791456 0.255922 4.767767 1.232233"/></marker><marker id="SVG_DEF_42" ibooks:markerId="open circle" markerUnits="strokeWidth" refX="3.000" refY="-0.300" viewBox="0.500 0.500 5.000 5.000" preserveAspectRatio="none" markerWidth="5.000" markerHeight="5.000"><path fill="none" d="M 4.767767 1.232233 C 5.744078 2.208544 5.744078 3.791456 4.767767 4.767767 C 3.791456 5.744078 2.208544 5.744078 1.232233 4.767767 C 0.255922 3.791456 0.255922 2.208544 1.232233 1.232233 C 2.208544 0.255922 3.791456 0.255922 4.767767 1.232233"/></marker><marker id="SVG_DEF_43" ibooks:markerId="open circle" markerUnits="strokeWidth" refX="3.000" refY="-0.300" viewBox="0.500 0.500 5.000 5.000" preserveAspectRatio="none" markerWidth="5.000" markerHeight="5.000"><path fill="none" d="M 4.767767 1.232233 C 5.744078 2.208544 5.744078 3.791456 4.767767 4.767767 C 3.791456 5.744078 2.208544 5.744078 1.232233 4.767767 C 0.255922 3.791456 0.255922 2.208544 1.232233 1.232233 C 2.208544 0.255922 3.791456 0.255922 4.767767 1.232233"/></marker><marker id="SVG_DEF_44" ibooks:markerId="open circle" markerUnits="strokeWidth" refX="3.000" refY="-0.300" viewBox="0.500 0.500 5.000 5.000" preserveAspectRatio="none" markerWidth="5.000" markerHeight="5.000"><path fill="none" d="M 4.767767 1.232233 C 5.744078 2.208544 5.744078 3.791456 4.767767 4.767767 C 3.791456 5.744078 2.208544 5.744078 1.232233 4.767767 C 0.255922 3.791456 0.255922 2.208544 1.232233 1.232233 C 2.208544 0.255922 3.791456 0.255922 4.767767 1.232233"/></marker><marker id="SVG_DEF_45" ibooks:markerId="open circle" markerUnits="strokeWidth" refX="3.000" refY="-0.300" viewBox="0.500 0.500 5.000 5.000" preserveAspectRatio="none" markerWidth="5.000" markerHeight="5.000"><path fill="none" d="M 4.767767 1.232233 C 5.744078 2.208544 5.744078 3.791456 4.767767 4.767767 C 3.791456 5.744078 2.208544 5.744078 1.232233 4.767767 C 0.255922 3.791456 0.255922 2.208544 1.232233 1.232233 C 2.208544 0.255922 3.791456 0.255922 4.767767 1.232233"/></marker><marker id="SVG_DEF_46" ibooks:markerId="open circle" markerUnits="strokeWidth" refX="3.000" refY="-0.300" viewBox="0.500 0.500 5.000 5.000" preserveAspectRatio="none" markerWidth="5.000" markerHeight="5.000"><path fill="none" d="M 4.767767 1.232233 C 5.744078 2.208544 5.744078 3.791456 4.767767 4.767767 C 3.791456 5.744078 2.208544 5.744078 1.232233 4.767767 C 0.255922 3.791456 0.255922 2.208544 1.232233 1.232233 C 2.208544 0.255922 3.791456 0.255922 4.767767 1.232233"/></marker><clipPath id="ClipPath-572"><path transform="matrix(1,0,0,1,0,0)" d="M 768 0 L 0 0 L 0 32 L 768 32 Z"/></clipPath><clipPath id="ClipPath-573"><path transform="matrix(1,0,0,1,0,0)" d="M 768 0 L 0 0 L 0 32 L 768 32 Z"/></clipPath><clipPath id="ClipPath-574"><path transform="matrix(1,0,0,1,0,0)" d="M 768 0 L 0 0 L 0 32 L 768 32 Z"/></clipPath></defs></svg>
