<?xml version="1.0" encoding="UTF-8"?>
<!DOCTYPE svg
PUBLIC "-//W3C//DTD SVG 1.1//EN"
       "http://www.w3.org/Graphics/SVG/1.1/DTD/svg11.dtd">
<svg xmlns:xlink="http://www.w3.org/1999/xlink" xmlns:ibooks="http://www.apple.com/2011/iBooks" width="0" height="0" xmlns="http://www.w3.org/2000/svg"><defs id="SVG_DEFS"><clipPath id="ClipPath-782"><path transform="matrix(1,0,0,1,0,0)" d="M 1696 0 L 0 0 L 0 1117 L 1696 1117 Z"/></clipPath><clipPath id="ClipPath-783"><path transform="matrix(1,0,0,1,0,0)" d="M 510 0 L 0 0 L 0 337 L 510 337 Z"/></clipPath><clipPath id="ClipPath-784"><path transform="matrix(1,0,0,1,0,0)" d="M 524 0 L 0 0 L 0 728 L 524 728 Z"/></clipPath><clipPath id="ClipPath-785"><path transform="matrix(1,0,0,1,0,0)" d="M 1748 0 L 0 0 L 0 1205 L 1748 1205 Z"/></clipPath><clipPath id="ClipPath-786"><path transform="matrix(1,0,0,1,0,0)" d="M 1630 0 L 0 0 L 0 1211 L 1630 1211 Z"/></clipPath><clipPath id="ClipPath-787"><path transform="matrix(1,0,0,1,0,0)" d="M 626 0 L 0 0 L 0 624 L 626 624 Z"/></clipPath><clipPath id="ClipPath-788"><path transform="matrix(1,0,0,1,0,0)" d="M 792 0 L 0 0 L 0 1523 L 792 1523 Z"/></clipPath><clipPath id="ClipPath-789"><path transform="matrix(1,0,0,1,0,0)" d="M 1073 0 L 0 0 L 0 597 L 1073 597 Z"/></clipPath><clipPath id="ClipPath-790"><path transform="matrix(1,0,0,1,0,0)" d="M 514 0 L 0 0 L 0 643 L 514 643 Z"/></clipPath><clipPath id="ClipPath-791"><path transform="matrix(1,0,0,1,0,0)" d="M 1461 0 L 0 0 L 0 1517 L 1461 1517 Z"/></clipPath><clipPath id="ClipPath-792"><path transform="matrix(1,0,0,1,0,0)" d="M 1556 0 L 0 0 L 0 524 L 1556 524 Z"/></clipPath><clipPath id="ClipPath-793"><path transform="matrix(1,0,0,1,0,0)" d="M 1454 0 L 0 0 L 0 1063 L 1454 1063 Z"/></clipPath><clipPath id="ClipPath-794"><path transform="matrix(1,0,0,1,0,0)" d="M 518 0 L 0 0 L 0 297 L 518 297 Z"/></clipPath><clipPath id="ClipPath-795"><path transform="matrix(1,0,0,1,0,0)" d="M 686 0 L 0 0 L 0 327 L 686 327 Z"/></clipPath><clipPath id="ClipPath-796"><path transform="matrix(1,0,0,1,0,0)" d="M 518 0 L 0 0 L 0 384 L 518 384 Z"/></clipPath><clipPath id="ClipPath-797"><path transform="matrix(1,0,0,1,0,0)" d="M 541 0 L 0 0 L 0 626 L 541 626 Z"/></clipPath><clipPath id="ClipPath-798"><path transform="matrix(1,0,0,1,0,0)" d="M 736 0 L 0 0 L 0 1525 L 736 1525 Z"/></clipPath><clipPath id="ClipPath-799"><path transform="matrix(1,0,0,1,0,0)" d="M 767 0 L 0 0 L 0 1524 L 767 1524 Z"/></clipPath><clipPath id="ClipPath-800"><path transform="matrix(1,0,0,1,0,0)" d="M 518 0 L 0 0 L 0 295 L 518 295 Z"/></clipPath><clipPath id="ClipPath-801"><path transform="matrix(1,0,0,1,0,0)" d="M 740 0 L 0 0 L 0 1523 L 740 1523 Z"/></clipPath><clipPath id="ClipPath-802"><path transform="matrix(1,0,0,1,0,0)" d="M 519 0 L 0 0 L 0 386 L 519 386 Z"/></clipPath><clipPath id="ClipPath-803"><path transform="matrix(1,0,0,1,0,0)" d="M 708 0 L 0 0 L 0 1521 L 708 1521 Z"/></clipPath><clipPath id="ClipPath-804"><path transform="matrix(1,0,0,1,0,0)" d="M 831 0 L 0 0 L 0 413 L 831 413 Z"/></clipPath><clipPath id="ClipPath-805"><path transform="matrix(1,0,0,1,0,0)" d="M 519 0 L 0 0 L 0 355 L 519 355 Z"/></clipPath><clipPath id="ClipPath-806"><path transform="matrix(1,0,0,1,0,0)" d="M 513 0 L 0 0 L 0 353 L 513 353 Z"/></clipPath><clipPath id="ClipPath-807"><path transform="matrix(1,0,0,1,0,0)" d="M 514 0 L 0 0 L 0 381 L 514 381 Z"/></clipPath><clipPath id="ClipPath-808"><path transform="matrix(1,0,0,1,0,0)" d="M 759 0 L 0 0 L 0 1522 L 759 1522 Z"/></clipPath><clipPath id="ClipPath-809"><path transform="matrix(1,0,0,1,0,0)" d="M 519 0 L 0 0 L 0 688 L 519 688 Z"/></clipPath><clipPath id="ClipPath-810"><path transform="matrix(1,0,0,1,0,0)" d="M 574 0 L 0 0 L 0 734 L 574 734 Z"/></clipPath><clipPath id="ClipPath-811"><path transform="matrix(1,0,0,1,0,0)" d="M 571 0 L 0 0 L 0 730 L 571 730 Z"/></clipPath><clipPath id="ClipPath-812"><path transform="matrix(1,0,0,1,0,0)" d="M 2046 0 L 0 0 L 0 352 L 2046 352 Z"/></clipPath><clipPath id="ClipPath-813"><path transform="matrix(1,0,0,1,0,0)" d="M 2045 0 L 0 0 L 0 1253 L 2045 1253 Z"/></clipPath><clipPath id="ClipPath-814"><path transform="matrix(1,0,0,1,0,0)" d="M 2042 0 L 0 0 L 0 1128 L 2042 1128 Z"/></clipPath><clipPath id="ClipPath-815"><path transform="matrix(1,0,0,1,0,0)" d="M 528 0 L 0 0 L 0 343 L 528 343 Z"/></clipPath><clipPath id="ClipPath-816"><path transform="matrix(1,0,0,1,0,0)" d="M 533 0 L 0 0 L 0 342 L 533 342 Z"/></clipPath><clipPath id="ClipPath-817"><path transform="matrix(1,0,0,1,0,0)" d="M 1181 0 L 0 0 L 0 251 L 1181 251 Z"/></clipPath><clipPath id="ClipPath-818"><path transform="matrix(1,0,0,1,0,0)" d="M 1781 0 L 0 0 L 0 555 L 1781 555 Z"/></clipPath><clipPath id="ClipPath-819"><path transform="matrix(1,0,0,1,0,0)" d="M 528 0 L 0 0 L 0 307 L 528 307 Z"/></clipPath><clipPath id="ClipPath-820"><path transform="matrix(1,0,0,1,0,0)" d="M 994 0 L 0 0 L 0 1082 L 994 1082 Z"/></clipPath><clipPath id="ClipPath-821"><path transform="matrix(1,0,0,1,0,0)" d="M 1159 0 L 0 0 L 0 336 L 1159 336 Z"/></clipPath></defs></svg>
