<?xml version="1.0" encoding="UTF-8"?>
<!DOCTYPE svg
PUBLIC "-//W3C//DTD SVG 1.1//EN"
       "http://www.w3.org/Graphics/SVG/1.1/DTD/svg11.dtd">
<svg xmlns:xlink="http://www.w3.org/1999/xlink" xmlns:ibooks="http://www.apple.com/2011/iBooks" width="0" height="0" xmlns="http://www.w3.org/2000/svg"><defs id="SVG_DEFS"><clipPath id="ClipPath-771"><path transform="matrix(1,0,0,1,0,0)" d="M 1530 0 L 0 0 L 0 765 L 1530 765 Z"/></clipPath><clipPath id="ClipPath-772"><path transform="matrix(1,0,0,1,0,0)" d="M 513 0 L 0 0 L 0 713 L 513 713 Z"/></clipPath><clipPath id="ClipPath-773"><path transform="matrix(1,0,0,1,0,0)" d="M 523 0 L 0 0 L 0 976 L 523 976 Z"/></clipPath><clipPath id="ClipPath-774"><path transform="matrix(1,0,0,1,0,0)" d="M 522 0 L 0 0 L 0 976 L 522 976 Z"/></clipPath><clipPath id="ClipPath-775"><path transform="matrix(1,0,0,1,0,0)" d="M 355 0 L 0 0 L 0 261 L 355 261 Z"/></clipPath><clipPath id="ClipPath-776"><path transform="matrix(1,0,0,1,-0,0)" d="M 546 0 L 0 0 L 0 519 L 546 519 Z"/></clipPath><clipPath id="ClipPath-777"><path transform="matrix(1,0,0,1,0,0)" d="M 830 0 L 0 0 L 0 104 L 830 104 Z"/></clipPath><clipPath id="ClipPath-778"><path transform="matrix(1,0,0,1,0,0)" d="M 518 0 L 0 0 L 0 262 L 518 262 Z"/></clipPath><clipPath id="ClipPath-779"><path transform="matrix(1,0,0,1,0,0)" d="M 1489 0 L 0 0 L 0 1065 L 1489 1065 Z"/></clipPath></defs></svg>
