<?xml version="1.0" encoding="UTF-8"?>
<!DOCTYPE svg
PUBLIC "-//W3C//DTD SVG 1.1//EN"
       "http://www.w3.org/Graphics/SVG/1.1/DTD/svg11.dtd">
<svg xmlns:xlink="http://www.w3.org/1999/xlink" xmlns:ibooks="http://www.apple.com/2011/iBooks" width="0" height="0" xmlns="http://www.w3.org/2000/svg"><defs id="SVG_DEFS"><clipPath id="ClipPath-756"><path transform="matrix(1,0,0,1,0,0)" d="M 1990 0 L 0 0 L 0 938 L 1990 938 Z"/></clipPath><clipPath id="ClipPath-757"><path transform="matrix(1,0,0,1,0,0)" d="M 496 0 L 0 0 L 0 381 L 496 381 Z"/></clipPath><clipPath id="ClipPath-758"><path transform="matrix(1,0,0,1,0,0)" d="M 2034 0 L 0 0 L 0 655 L 2034 655 Z"/></clipPath><clipPath id="ClipPath-759"><path transform="matrix(1,0,0,1,0,0)" d="M 512 0 L 0 0 L 0 294 L 512 294 Z"/></clipPath><clipPath id="ClipPath-760"><path transform="matrix(1,0,0,1,0,0)" d="M 1689 0 L 0 0 L 0 1365 L 1689 1365 Z"/></clipPath><clipPath id="ClipPath-761"><path transform="matrix(1,0,0,1,0,0)" d="M 2046 0 L 0 0 L 0 1047 L 2046 1047 Z"/></clipPath><clipPath id="ClipPath-762"><path transform="matrix(1,0,0,1,0,0)" d="M 519 0 L 0 0 L 0 375 L 519 375 Z"/></clipPath><clipPath id="ClipPath-763"><path transform="matrix(1,0,0,1,0,0)" d="M 517 0 L 0 0 L 0 342 L 517 342 Z"/></clipPath><clipPath id="ClipPath-764"><path transform="matrix(1,0,0,1,0,0)" d="M 399 0 L 0 0 L 0 242 L 399 242 Z"/></clipPath><clipPath id="ClipPath-765"><path transform="matrix(1,0,0,1,0,0)" d="M 869 0 L 0 0 L 0 102 L 869 102 Z"/></clipPath><clipPath id="ClipPath-766"><path transform="matrix(1,0,0,1,0,0)" d="M 993 0 L 0 0 L 0 318 L 993 318 Z"/></clipPath><clipPath id="ClipPath-767"><path transform="matrix(1,0,0,1,0,0)" d="M 515 0 L 0 0 L 0 383 L 515 383 Z"/></clipPath><clipPath id="ClipPath-768"><path transform="matrix(1,0,0,1,0,0)" d="M 505 0 L 0 0 L 0 1108 L 505 1108 Z"/></clipPath><clipPath id="ClipPath-769"><path transform="matrix(1,0,0,1,0,0)" d="M 530 0 L 0 0 L 0 172 L 530 172 Z"/></clipPath><clipPath id="ClipPath-770"><path transform="matrix(1,0,0,1,0,0)" d="M 557 0 L 0 0 L 0 152 L 557 152 Z"/></clipPath></defs></svg>
