<?xml version="1.0" encoding="UTF-8"?>
<!DOCTYPE svg
PUBLIC "-//W3C//DTD SVG 1.1//EN"
       "http://www.w3.org/Graphics/SVG/1.1/DTD/svg11.dtd">
<svg xmlns:xlink="http://www.w3.org/1999/xlink" xmlns:ibooks="http://www.apple.com/2011/iBooks" width="0" height="0" xmlns="http://www.w3.org/2000/svg"><defs id="SVG_DEFS"><clipPath id="ClipPath-415"><path transform="matrix(1,0,0,1,0,0)" d="M 372 0 L 0 0 L 0 226 L 372 226 Z"/></clipPath><clipPath id="ClipPath-416"><path transform="matrix(1,0,0,1,0,0)" d="M 391 0 L 0 0 L 0 392 L 391 392 Z"/></clipPath><clipPath id="ClipPath-417"><path transform="matrix(1,0,0,1,0,0)" d="M 468 0 L 0 0 L 0 271 L 468 271 Z"/></clipPath><clipPath id="ClipPath-418"><path transform="matrix(1,0,0,1,0,0)" d="M 328 0 L 0 0 L 0 66 L 328 66 Z"/></clipPath><clipPath id="ClipPath-419"><path transform="matrix(1,0,0,1,0,0)" d="M 461 0 L 0 0 L 0 196 L 461 196 Z"/></clipPath><clipPath id="ClipPath-420"><path transform="matrix(1,0,0,1,0,0)" d="M 506 0 L 0 0 L 0 35 L 506 35 Z"/></clipPath><clipPath id="ClipPath-421"><path transform="matrix(1,0,0,1,0,0)" d="M 357 0 L 0 0 L 0 240 L 357 240 Z"/></clipPath></defs></svg>
