<?xml version="1.0" encoding="UTF-8"?>
<!DOCTYPE svg
PUBLIC "-//W3C//DTD SVG 1.1//EN"
       "http://www.w3.org/Graphics/SVG/1.1/DTD/svg11.dtd">
<svg xmlns:xlink="http://www.w3.org/1999/xlink" xmlns:ibooks="http://www.apple.com/2011/iBooks" width="0" height="0" xmlns="http://www.w3.org/2000/svg"><defs id="SVG_DEFS"><clipPath id="ClipPath-597"><path transform="matrix(1,0,0,1,0,0)" d="M 768 0 L 0 0 L 0 32 L 768 32 Z"/></clipPath><clipPath id="ClipPath-598"><path transform="matrix(1,0,0,1,0,0)" d="M 1511 0 L 0 0 L 0 1081 L 1511 1081 Z"/></clipPath><clipPath id="ClipPath-599"><path transform="matrix(1,0,0,1,0,0)" d="M 768 0 L 0 0 L 0 32 L 768 32 Z"/></clipPath><clipPath id="ClipPath-600"><path transform="matrix(1,0,0,1,0,0)" d="M 768 0 L 0 0 L 0 32 L 768 32 Z"/></clipPath><clipPath id="ClipPath-601"><path transform="matrix(1,0,0,1,0,0)" d="M 664 0 L 0 0 L 0 1207 L 664 1207 Z"/></clipPath><clipPath id="ClipPath-602"><path transform="matrix(1,0,0,1,0,0)" d="M 768 0 L 0 0 L 0 32 L 768 32 Z"/></clipPath><clipPath id="ClipPath-603"><path transform="matrix(1,0,0,1,0,0)" d="M 1944 0 L 0 0 L 0 1364 L 1944 1364 Z"/></clipPath><clipPath id="ClipPath-604"><path transform="matrix(1,0,0,1,0,0)" d="M 768 0 L 0 0 L 0 32 L 768 32 Z"/></clipPath><clipPath id="ClipPath-605"><path transform="matrix(1,0,0,1,0,0)" d="M 768 0 L 0 0 L 0 32 L 768 32 Z"/></clipPath><clipPath id="ClipPath-606"><path transform="matrix(1,0,0,1,0,0)" d="M 768 0 L 0 0 L 0 32 L 768 32 Z"/></clipPath><clipPath id="ClipPath-607"><path transform="matrix(1,0,0,1,0,0)" d="M 1825 0 L 0 0 L 0 290 L 1825 290 Z"/></clipPath><clipPath id="ClipPath-608"><path transform="matrix(1,0,0,1,0,0)" d="M 768 0 L 0 0 L 0 32 L 768 32 Z"/></clipPath><clipPath id="ClipPath-609"><path transform="matrix(1,0,0,1,0,0)" d="M 2048 0 L 0 0 L 0 1298 L 2048 1298 Z"/></clipPath><clipPath id="ClipPath-610"><path transform="matrix(1,0,0,1,0,0)" d="M 1527 0 L 0 0 L 0 1408 L 1527 1408 Z"/></clipPath><clipPath id="ClipPath-611"><path transform="matrix(1,0,0,1,0,0)" d="M 768 0 L 0 0 L 0 32 L 768 32 Z"/></clipPath><clipPath id="ClipPath-612"><path transform="matrix(1,0,0,1,0,0)" d="M 768 0 L 0 0 L 0 32 L 768 32 Z"/></clipPath><clipPath id="ClipPath-613"><path transform="matrix(1,0,0,1,-0,0)" d="M 2048 0 L 0 0 L 0 1315 L 2048 1315 Z"/></clipPath><clipPath id="ClipPath-614"><path transform="matrix(1,0,0,1,0,0)" d="M 1568 0 L 0 0 L 0 841 L 1568 841 Z"/></clipPath><clipPath id="ClipPath-615"><path transform="matrix(1,0,0,1,0,0)" d="M 768 0 L 0 0 L 0 32 L 768 32 Z"/></clipPath><clipPath id="ClipPath-616"><path transform="matrix(1,0,0,1,0,0)" d="M 768 0 L 0 0 L 0 32 L 768 32 Z"/></clipPath><clipPath id="ClipPath-617"><path transform="matrix(1,0,0,1,0,0)" d="M 2048 0 L 0 0 L 0 1328 L 2048 1328 Z"/></clipPath><clipPath id="ClipPath-618"><path transform="matrix(1,0,0,1,0,0)" d="M 1442 0 L 0 0 L 0 994 L 1442 994 Z"/></clipPath><clipPath id="ClipPath-619"><path transform="matrix(1,0,0,1,0,0)" d="M 768 0 L 0 0 L 0 32 L 768 32 Z"/></clipPath><clipPath id="ClipPath-620"><path transform="matrix(1,0,0,1,0,0)" d="M 768 0 L 0 0 L 0 32 L 768 32 Z"/></clipPath><clipPath id="ClipPath-621"><path transform="matrix(1,0,0,1,0,0)" d="M 768 0 L 0 0 L 0 32 L 768 32 Z"/></clipPath><clipPath id="ClipPath-622"><path transform="matrix(1,0,0,1,0,0)" d="M 768 0 L 0 0 L 0 32 L 768 32 Z"/></clipPath><clipPath id="ClipPath-623"><path transform="matrix(1,0,0,1,0,0)" d="M 771 0 L 0 0 L 0 1482 L 771 1482 Z"/></clipPath><clipPath id="ClipPath-624"><path transform="matrix(1,0,0,1,0,0)" d="M 768 0 L 0 0 L 0 32 L 768 32 Z"/></clipPath><clipPath id="ClipPath-625"><path transform="matrix(1,0,0,1,0,0)" d="M 768 0 L 0 0 L 0 32 L 768 32 Z"/></clipPath><clipPath id="ClipPath-626"><path transform="matrix(1,0,0,1,0,0)" d="M 768 0 L 0 0 L 0 32 L 768 32 Z"/></clipPath><clipPath id="ClipPath-627"><path transform="matrix(1,0,0,1,0,0)" d="M 768 0 L 0 0 L 0 32 L 768 32 Z"/></clipPath><clipPath id="ClipPath-628"><path transform="matrix(1,0,0,1,0,0)" d="M 768 0 L 0 0 L 0 32 L 768 32 Z"/></clipPath><clipPath id="ClipPath-629"><path transform="matrix(1,0,0,1,0,0)" d="M 768 0 L 0 0 L 0 32 L 768 32 Z"/></clipPath><clipPath id="ClipPath-630"><path transform="matrix(1,0,0,1,0,0)" d="M 768 0 L 0 0 L 0 32 L 768 32 Z"/></clipPath></defs></svg>
