<?xml version="1.0" encoding="UTF-8"?>
<!DOCTYPE svg
PUBLIC "-//W3C//DTD SVG 1.1//EN"
       "http://www.w3.org/Graphics/SVG/1.1/DTD/svg11.dtd">
<svg xmlns:xlink="http://www.w3.org/1999/xlink" xmlns:ibooks="http://www.apple.com/2011/iBooks" width="0" height="0" xmlns="http://www.w3.org/2000/svg"><defs id="SVG_DEFS"><clipPath id="ClipPath-436"><path transform="matrix(1,0,0,1,0,0)" d="M 1644 0 L 0 0 L 0 644 L 1644 644 Z"/></clipPath><clipPath id="ClipPath-437"><path transform="matrix(1,0,0,1,0,0)" d="M 875 0 L 0 0 L 0 401 L 875 401 Z"/></clipPath><clipPath id="ClipPath-438"><path transform="matrix(1,0,0,1,0,0)" d="M 435 0 L 0 0 L 0 57 L 435 57 Z"/></clipPath><clipPath id="ClipPath-439"><path transform="matrix(1,0,0,1,0,0)" d="M 471 0 L 0 0 L 0 271 L 471 271 Z"/></clipPath><clipPath id="ClipPath-440"><path transform="matrix(1,0,0,1,0,0)" d="M 475 0 L 0 0 L 0 771 L 475 771 Z"/></clipPath><clipPath id="ClipPath-441"><path transform="matrix(1,0,0,1,0,0)" d="M 758 0 L 0 0 L 0 767 L 758 767 Z"/></clipPath><clipPath id="ClipPath-442"><path transform="matrix(1,0,0,1,0,0)" d="M 1640 0 L 0 0 L 0 686 L 1640 686 Z"/></clipPath><clipPath id="ClipPath-443"><path transform="matrix(1,0,0,1,0,0)" d="M 895 0 L 0 0 L 0 92 L 895 92 Z"/></clipPath><clipPath id="ClipPath-444"><path transform="matrix(1,0,0,1,0,0)" d="M 521 0 L 0 0 L 0 335 L 521 335 Z"/></clipPath><clipPath id="ClipPath-445"><path transform="matrix(1,0,0,1,0,0)" d="M 900 0 L 0 0 L 0 98 L 900 98 Z"/></clipPath><clipPath id="ClipPath-446"><path transform="matrix(1,0,0,1,0,0)" d="M 937 0 L 0 0 L 0 114 L 937 114 Z"/></clipPath><clipPath id="ClipPath-447"><path transform="matrix(1,0,0,1,0,0)" d="M 1180 0 L 0 0 L 0 228 L 1180 228 Z"/></clipPath><clipPath id="ClipPath-448"><path transform="matrix(1,0,0,1,0,0)" d="M 500 0 L 0 0 L 0 66 L 500 66 Z"/></clipPath><clipPath id="ClipPath-449"><path transform="matrix(1,0,0,1,0,0)" d="M 556 0 L 0 0 L 0 419 L 556 419 Z"/></clipPath><clipPath id="ClipPath-450"><path transform="matrix(1,0,0,1,0,0)" d="M 523 0 L 0 0 L 0 878 L 523 878 Z"/></clipPath><clipPath id="ClipPath-451"><path transform="matrix(1,0,0,1,0,0)" d="M 859 0 L 0 0 L 0 1522 L 859 1522 Z"/></clipPath></defs></svg>
