<?xml version="1.0" encoding="UTF-8"?>
<!DOCTYPE svg
PUBLIC "-//W3C//DTD SVG 1.1//EN"
       "http://www.w3.org/Graphics/SVG/1.1/DTD/svg11.dtd">
<svg xmlns:xlink="http://www.w3.org/1999/xlink" xmlns:ibooks="http://www.apple.com/2011/iBooks" width="0" height="0" xmlns="http://www.w3.org/2000/svg"><defs id="SVG_DEFS"><clipPath id="ClipPath-631"><path transform="matrix(1,0,0,1,0,0)" d="M 768 0 L 0 0 L 0 32 L 768 32 Z"/></clipPath><clipPath id="ClipPath-632"><path transform="matrix(1,0,0,1,0,0)" d="M 1496 0 L 0 0 L 0 207 L 1496 207 Z"/></clipPath><clipPath id="ClipPath-633"><path transform="matrix(1,0,0,1,0,0)" d="M 768 0 L 0 0 L 0 32 L 768 32 Z"/></clipPath><clipPath id="ClipPath-634"><path transform="matrix(1,0,0,1,0,0)" d="M 710 0 L 0 0 L 0 1416 L 710 1416 Z"/></clipPath><clipPath id="ClipPath-635"><path transform="matrix(1,0,0,1,0,0)" d="M 768 0 L 0 0 L 0 32 L 768 32 Z"/></clipPath><clipPath id="ClipPath-636"><path transform="matrix(1,0,0,1,0,0)" d="M 1476 0 L 0 0 L 0 792 L 1476 792 Z"/></clipPath><clipPath id="ClipPath-637"><path transform="matrix(1,0,0,1,0,0)" d="M 503 0 L 0 0 L 0 136 L 503 136 Z"/></clipPath><clipPath id="ClipPath-638"><path transform="matrix(1,0,0,1,0,0)" d="M 768 0 L 0 0 L 0 32 L 768 32 Z"/></clipPath><clipPath id="ClipPath-639"><path transform="matrix(1,0,0,1,0,0)" d="M 768 0 L 0 0 L 0 32 L 768 32 Z"/></clipPath><clipPath id="ClipPath-640"><path transform="matrix(1,0,0,1,0,0)" d="M 515 0 L 0 0 L 0 145 L 515 145 Z"/></clipPath><clipPath id="ClipPath-641"><path transform="matrix(1,0,0,1,0,0)" d="M 768 0 L 0 0 L 0 32 L 768 32 Z"/></clipPath><clipPath id="ClipPath-642"><path transform="matrix(1,0,0,1,0,0)" d="M 768 0 L 0 0 L 0 32 L 768 32 Z"/></clipPath><clipPath id="ClipPath-643"><path transform="matrix(1,0,0,1,0,0)" d="M 571 0 L 0 0 L 0 737 L 571 737 Z"/></clipPath><clipPath id="ClipPath-644"><path transform="matrix(1,0,0,1,0,0)" d="M 758 0 L 0 0 L 0 467 L 758 467 Z"/></clipPath><clipPath id="ClipPath-645"><path transform="matrix(1,0,0,1,0,0)" d="M 768 0 L 0 0 L 0 32 L 768 32 Z"/></clipPath><clipPath id="ClipPath-646"><path transform="matrix(1,0,0,1,0,0)" d="M 519 0 L 0 0 L 0 388 L 519 388 Z"/></clipPath><clipPath id="ClipPath-647"><path transform="matrix(1,0,0,1,0,0)" d="M 768 0 L 0 0 L 0 32 L 768 32 Z"/></clipPath><clipPath id="ClipPath-648"><path transform="matrix(1,0,0,1,0,0)" d="M 528 0 L 0 0 L 0 376 L 528 376 Z"/></clipPath><clipPath id="ClipPath-649"><path transform="matrix(1,0,0,1,0,0)" d="M 768 0 L 0 0 L 0 32 L 768 32 Z"/></clipPath><clipPath id="ClipPath-650"><path transform="matrix(1,0,0,1,0,0)" d="M 520 0 L 0 0 L 0 376 L 520 376 Z"/></clipPath><clipPath id="ClipPath-651"><path transform="matrix(1,0,0,1,0,0)" d="M 768 0 L 0 0 L 0 32 L 768 32 Z"/></clipPath><clipPath id="ClipPath-652"><path transform="matrix(1,0,0,1,0,0)" d="M 516 0 L 0 0 L 0 376 L 516 376 Z"/></clipPath><clipPath id="ClipPath-653"><path transform="matrix(1,0,0,1,0,0)" d="M 768 0 L 0 0 L 0 32 L 768 32 Z"/></clipPath><clipPath id="ClipPath-654"><path transform="matrix(1,0,0,1,0,0)" d="M 685 0 L 0 0 L 0 1452 L 685 1452 Z"/></clipPath><clipPath id="ClipPath-655"><path transform="matrix(1,0,0,1,0,0)" d="M 768 0 L 0 0 L 0 32 L 768 32 Z"/></clipPath><clipPath id="ClipPath-656"><path transform="matrix(1,0,0,1,0,0)" d="M 732 0 L 0 0 L 0 439 L 732 439 Z"/></clipPath><clipPath id="ClipPath-657"><path transform="matrix(1,0,0,1,0,0)" d="M 1162 0 L 0 0 L 0 363 L 1162 363 Z"/></clipPath><clipPath id="ClipPath-658"><path transform="matrix(1,0,0,1,0,0)" d="M 768 0 L 0 0 L 0 32 L 768 32 Z"/></clipPath><clipPath id="ClipPath-659"><path transform="matrix(1,0,0,1,0,0)" d="M 732 0 L 0 0 L 0 439 L 732 439 Z"/></clipPath><clipPath id="ClipPath-660"><path transform="matrix(1,0,0,1,0,0)" d="M 768 0 L 0 0 L 0 32 L 768 32 Z"/></clipPath><clipPath id="ClipPath-661"><path transform="matrix(1,0,0,1,0,0)" d="M 525 0 L 0 0 L 0 245 L 525 245 Z"/></clipPath><clipPath id="ClipPath-662"><path transform="matrix(1,0,0,1,0,0)" d="M 768 0 L 0 0 L 0 32 L 768 32 Z"/></clipPath><clipPath id="ClipPath-663"><path transform="matrix(1,0,0,1,0,0)" d="M 667 0 L 0 0 L 0 370 L 667 370 Z"/></clipPath><clipPath id="ClipPath-664"><path transform="matrix(1,0,0,1,0,0)" d="M 768 0 L 0 0 L 0 32 L 768 32 Z"/></clipPath><clipPath id="ClipPath-665"><path transform="matrix(1,0,0,1,0,0)" d="M 554 0 L 0 0 L 0 737 L 554 737 Z"/></clipPath><clipPath id="ClipPath-666"><path transform="matrix(1,0,0,1,0,0)" d="M 768 0 L 0 0 L 0 32 L 768 32 Z"/></clipPath><clipPath id="ClipPath-667"><path transform="matrix(1,0,0,1,0,0)" d="M 643 0 L 0 0 L 0 625 L 643 625 Z"/></clipPath><clipPath id="ClipPath-668"><path transform="matrix(1,0,0,1,0,0)" d="M 768 0 L 0 0 L 0 32 L 768 32 Z"/></clipPath><clipPath id="ClipPath-669"><path transform="matrix(1,0,0,1,0,0)" d="M 634 0 L 0 0 L 0 634 L 634 634 Z"/></clipPath><clipPath id="ClipPath-670"><path transform="matrix(1,0,0,1,0,0)" d="M 768 0 L 0 0 L 0 32 L 768 32 Z"/></clipPath><clipPath id="ClipPath-671"><path transform="matrix(1,0,0,1,0,0)" d="M 657 0 L 0 0 L 0 597 L 657 597 Z"/></clipPath><clipPath id="ClipPath-672"><path transform="matrix(1,0,0,1,0,0)" d="M 768 0 L 0 0 L 0 32 L 768 32 Z"/></clipPath><clipPath id="ClipPath-673"><path transform="matrix(1,0,0,1,0,0)" d="M 639 0 L 0 0 L 0 665 L 639 665 Z"/></clipPath><clipPath id="ClipPath-674"><path transform="matrix(1,0,0,1,0,0)" d="M 768 0 L 0 0 L 0 32 L 768 32 Z"/></clipPath><clipPath id="ClipPath-675"><path transform="matrix(1,0,0,1,0,0)" d="M 768 0 L 0 0 L 0 32 L 768 32 Z"/></clipPath><clipPath id="ClipPath-676"><path transform="matrix(1,0,0,1,0,0)" d="M 768 0 L 0 0 L 0 32 L 768 32 Z"/></clipPath><clipPath id="ClipPath-677"><path transform="matrix(1,0,0,1,0,0)" d="M 823 0 L 0 0 L 0 912 L 823 912 Z"/></clipPath><clipPath id="ClipPath-678"><path transform="matrix(1,0,0,1,0,0)" d="M 768 0 L 0 0 L 0 32 L 768 32 Z"/></clipPath><clipPath id="ClipPath-679"><path transform="matrix(1,0,0,1,0,0)" d="M 768 0 L 0 0 L 0 32 L 768 32 Z"/></clipPath><clipPath id="ClipPath-680"><path transform="matrix(1,0,0,1,0,0)" d="M 847 0 L 0 0 L 0 620 L 847 620 Z"/></clipPath><clipPath id="ClipPath-681"><path transform="matrix(1,0,0,1,0,0)" d="M 768 0 L 0 0 L 0 32 L 768 32 Z"/></clipPath><clipPath id="ClipPath-682"><path transform="matrix(1,0,0,1,0,0)" d="M 768 0 L 0 0 L 0 32 L 768 32 Z"/></clipPath><clipPath id="ClipPath-683"><path transform="matrix(1,0,0,1,0,0)" d="M 960 0 L 0 0 L 0 355 L 960 355 Z"/></clipPath><clipPath id="ClipPath-684"><path transform="matrix(1,0,0,1,0,0)" d="M 768 0 L 0 0 L 0 32 L 768 32 Z"/></clipPath><clipPath id="ClipPath-685"><path transform="matrix(1,0,0,1,0,0)" d="M 516 0 L 0 0 L 0 405 L 516 405 Z"/></clipPath><clipPath id="ClipPath-686"><path transform="matrix(1,0,0,1,0,0)" d="M 768 0 L 0 0 L 0 32 L 768 32 Z"/></clipPath><clipPath id="ClipPath-687"><path transform="matrix(1,0,0,1,0,0)" d="M 508 0 L 0 0 L 0 100 L 508 100 Z"/></clipPath><clipPath id="ClipPath-688"><path transform="matrix(1,0,0,1,0,0)" d="M 768 0 L 0 0 L 0 32 L 768 32 Z"/></clipPath><clipPath id="ClipPath-689"><path transform="matrix(1,0,0,1,0,0)" d="M 2041 0 L 0 0 L 0 1513 L 2041 1513 Z"/></clipPath><clipPath id="ClipPath-690"><path transform="matrix(1,0,0,1,0,0)" d="M 639 0 L 0 0 L 0 1520 L 639 1520 Z"/></clipPath><clipPath id="ClipPath-691"><path transform="matrix(1,0,0,1,0,0)" d="M 768 0 L 0 0 L 0 32 L 768 32 Z"/></clipPath><clipPath id="ClipPath-692"><path transform="matrix(1,0,0,1,0,0)" d="M 768 0 L 0 0 L 0 32 L 768 32 Z"/></clipPath><clipPath id="ClipPath-693"><path transform="matrix(1,0,0,1,0,0)" d="M 768 0 L 0 0 L 0 32 L 768 32 Z"/></clipPath><clipPath id="ClipPath-694"><path transform="matrix(1,0,0,1,0,0)" d="M 578 0 L 0 0 L 0 747 L 578 747 Z"/></clipPath><clipPath id="ClipPath-695"><path transform="matrix(1,0,0,1,0,0)" d="M 768 0 L 0 0 L 0 32 L 768 32 Z"/></clipPath><clipPath id="ClipPath-696"><path transform="matrix(1,0,0,1,0,0)" d="M 503 0 L 0 0 L 0 447 L 503 447 Z"/></clipPath><clipPath id="ClipPath-697"><path transform="matrix(1,0,0,1,0,0)" d="M 768 0 L 0 0 L 0 32 L 768 32 Z"/></clipPath><clipPath id="ClipPath-698"><path transform="matrix(1,0,0,1,0,0)" d="M 521 0 L 0 0 L 0 557 L 521 557 Z"/></clipPath><clipPath id="ClipPath-699"><path transform="matrix(1,0,0,1,0,0)" d="M 768 0 L 0 0 L 0 32 L 768 32 Z"/></clipPath><clipPath id="ClipPath-700"><path transform="matrix(1,0,0,1,0,0)" d="M 573 0 L 0 0 L 0 740 L 573 740 Z"/></clipPath><clipPath id="ClipPath-701"><path transform="matrix(1,0,0,1,0,0)" d="M 768 0 L 0 0 L 0 32 L 768 32 Z"/></clipPath><clipPath id="ClipPath-702"><path transform="matrix(1,0,0,1,0,0)" d="M 768 0 L 0 0 L 0 32 L 768 32 Z"/></clipPath><clipPath id="ClipPath-703"><path transform="matrix(1,0,0,1,0,0)" d="M 721 0 L 0 0 L 0 1520 L 721 1520 Z"/></clipPath><clipPath id="ClipPath-704"><path transform="matrix(1,0,0,1,0,0)" d="M 768 0 L 0 0 L 0 32 L 768 32 Z"/></clipPath><clipPath id="ClipPath-705"><path transform="matrix(1,0,0,1,0,0)" d="M 756 0 L 0 0 L 0 1518 L 756 1518 Z"/></clipPath><clipPath id="ClipPath-706"><path transform="matrix(1,0,0,1,0,0)" d="M 768 0 L 0 0 L 0 32 L 768 32 Z"/></clipPath><clipPath id="ClipPath-707"><path transform="matrix(1,0,0,1,0,0)" d="M 786 0 L 0 0 L 0 1521 L 786 1521 Z"/></clipPath><clipPath id="ClipPath-708"><path transform="matrix(1,0,0,1,0,0)" d="M 768 0 L 0 0 L 0 32 L 768 32 Z"/></clipPath><clipPath id="ClipPath-709"><path transform="matrix(1,0,0,1,0,0)" d="M 708 0 L 0 0 L 0 338 L 708 338 Z"/></clipPath><clipPath id="ClipPath-710"><path transform="matrix(1,0,0,1,0,0)" d="M 516 0 L 0 0 L 0 148 L 516 148 Z"/></clipPath><clipPath id="ClipPath-711"><path transform="matrix(1,0,0,1,0,0)" d="M 768 0 L 0 0 L 0 32 L 768 32 Z"/></clipPath></defs></svg>
