<?xml version="1.0" encoding="UTF-8"?>
<!DOCTYPE svg
PUBLIC "-//W3C//DTD SVG 1.1//EN"
       "http://www.w3.org/Graphics/SVG/1.1/DTD/svg11.dtd">
<svg xmlns:xlink="http://www.w3.org/1999/xlink" xmlns:ibooks="http://www.apple.com/2011/iBooks" width="0" height="0" xmlns="http://www.w3.org/2000/svg"><defs id="SVG_DEFS"><clipPath id="ClipPath-452"><path transform="matrix(1,0,0,1,0,0)" d="M 792 0 L 0 0 L 0 64 L 792 64 Z"/></clipPath><clipPath id="ClipPath-453"><path transform="matrix(1,0,0,1,0,0)" d="M 432 0 L 0 0 L 0 259 L 432 259 Z"/></clipPath><clipPath id="ClipPath-454"><path transform="matrix(1,0,0,1,0,0)" d="M 536 0 L 0 0 L 0 319 L 536 319 Z"/></clipPath><clipPath id="ClipPath-455"><path transform="matrix(1,0,0,1,0,0)" d="M 680 0 L 0 0 L 0 455 L 680 455 Z"/></clipPath><clipPath id="ClipPath-456"><path transform="matrix(1,0,0,1,0,0)" d="M 757 0 L 0 0 L 0 760 L 757 760 Z"/></clipPath><clipPath id="ClipPath-457"><path transform="matrix(1,0,0,1,0,0)" d="M 1789 0 L 0 0 L 0 607 L 1789 607 Z"/></clipPath><clipPath id="ClipPath-458"><path transform="matrix(1,0,0,1,0,0)" d="M 593 0 L 0 0 L 0 344 L 593 344 Z"/></clipPath><clipPath id="ClipPath-459"><path transform="matrix(1,0,0,1,0,0)" d="M 2046 0 L 0 0 L 0 193 L 2046 193 Z"/></clipPath><clipPath id="ClipPath-460"><path transform="matrix(1,0,0,1,0,0)" d="M 910 0 L 0 0 L 0 278 L 910 278 Z"/></clipPath><clipPath id="ClipPath-461"><path transform="matrix(1,0,0,1,0,0)" d="M 1069 0 L 0 0 L 0 764 L 1069 764 Z"/></clipPath><clipPath id="ClipPath-462"><path transform="matrix(1,0,0,1,0,0)" d="M 926 0 L 0 0 L 0 472 L 926 472 Z"/></clipPath><clipPath id="ClipPath-463"><path transform="matrix(1,0,0,1,0,0)" d="M 514 0 L 0 0 L 0 291 L 514 291 Z"/></clipPath><clipPath id="ClipPath-464"><path transform="matrix(1,0,0,1,0,0)" d="M 823 0 L 0 0 L 0 148 L 823 148 Z"/></clipPath><clipPath id="ClipPath-465"><path transform="matrix(1,0,0,1,0,0)" d="M 65 0 L 0 0 L 0 51 L 65 51 Z"/></clipPath><clipPath id="ClipPath-466"><path transform="matrix(1,0,0,1,0,0)" d="M 65 0 L 0 0 L 0 51 L 65 51 Z"/></clipPath><clipPath id="ClipPath-467"><path transform="matrix(1,0,0,1,0,0)" d="M 740 0 L 0 0 L 0 247 L 740 247 Z"/></clipPath><clipPath id="ClipPath-468"><path transform="matrix(1,0,0,1,0,0)" d="M 980 0 L 0 0 L 0 1040 L 980 1040 Z"/></clipPath><clipPath id="ClipPath-469"><path transform="matrix(1,0,0,1,0,0)" d="M 1554 0 L 0 0 L 0 841 L 1554 841 Z"/></clipPath><clipPath id="ClipPath-470"><path transform="matrix(1,0,0,1,0,0)" d="M 2010 0 L 0 0 L 0 209 L 2010 209 Z"/></clipPath><clipPath id="ClipPath-471"><path transform="matrix(1,0,0,1,0,0)" d="M 795 0 L 0 0 L 0 1414 L 795 1414 Z"/></clipPath><clipPath id="ClipPath-472"><path transform="matrix(1,0,0,1,0,0)" d="M 762 0 L 0 0 L 0 1408 L 762 1408 Z"/></clipPath><clipPath id="ClipPath-473"><path transform="matrix(1,0,0,1,0,0)" d="M 524 0 L 0 0 L 0 987 L 524 987 Z"/></clipPath><clipPath id="ClipPath-474"><path transform="matrix(1,0,0,1,0,0)" d="M 793 0 L 0 0 L 0 32 L 793 32 Z"/></clipPath></defs></svg>
