<?xml version="1.0" encoding="UTF-8"?>
<!DOCTYPE svg
PUBLIC "-//W3C//DTD SVG 1.1//EN"
       "http://www.w3.org/Graphics/SVG/1.1/DTD/svg11.dtd">
<svg xmlns:xlink="http://www.w3.org/1999/xlink" xmlns:ibooks="http://www.apple.com/2011/iBooks" width="0" height="0" xmlns="http://www.w3.org/2000/svg"><defs id="SVG_DEFS"><clipPath id="ClipPath-423"><path transform="matrix(1,0,0,1,0,0)" d="M 840 0 L 0 0 L 0 262 L 840 262 Z"/></clipPath><clipPath id="ClipPath-424"><path transform="matrix(1,0,0,1,0,0)" d="M 827 0 L 0 0 L 0 285 L 827 285 Z"/></clipPath><clipPath id="ClipPath-425"><path transform="matrix(1,0,0,1,0,0)" d="M 276 0 L 0 0 L 0 33 L 276 33 Z"/></clipPath><clipPath id="ClipPath-426"><path transform="matrix(1,0,0,1,0,0)" d="M 441 0 L 0 0 L 0 135 L 441 135 Z"/></clipPath><clipPath id="ClipPath-427"><path transform="matrix(1,0,0,1,0,0)" d="M 1980 0 L 0 0 L 0 329 L 1980 329 Z"/></clipPath><clipPath id="ClipPath-428"><path transform="matrix(1,0,0,1,0,0)" d="M 740 0 L 0 0 L 0 290 L 740 290 Z"/></clipPath><clipPath id="ClipPath-429"><path transform="matrix(1,0,0,1,0,0)" d="M 2046 0 L 0 0 L 0 222 L 2046 222 Z"/></clipPath><clipPath id="ClipPath-430"><path transform="matrix(1,0,0,1,0,0)" d="M 1140 0 L 0 0 L 0 228 L 1140 228 Z"/></clipPath><clipPath id="ClipPath-431"><path transform="matrix(1,0,0,1,0,0)" d="M 86 0 L 0 0 L 0 49 L 86 49 Z"/></clipPath></defs></svg>
