<?xml version="1.0" encoding="UTF-8"?>
<!DOCTYPE svg
PUBLIC "-//W3C//DTD SVG 1.1//EN"
       "http://www.w3.org/Graphics/SVG/1.1/DTD/svg11.dtd">
<svg xmlns:xlink="http://www.w3.org/1999/xlink" xmlns:ibooks="http://www.apple.com/2011/iBooks" width="0" height="0" xmlns="http://www.w3.org/2000/svg"><defs id="SVG_DEFS"><clipPath id="ClipPath-533"><path transform="matrix(1,0,0,1,0,0)" d="M 768 0 L 0 0 L 0 32 L 768 32 Z"/></clipPath><clipPath id="ClipPath-534"><path transform="matrix(1,0,0,1,0,0)" d="M 768 0 L 0 0 L 0 32 L 768 32 Z"/></clipPath><clipPath id="ClipPath-535"><path transform="matrix(1,0,0,1,0,0)" d="M 768 0 L 0 0 L 0 32 L 768 32 Z"/></clipPath><clipPath id="ClipPath-536"><path transform="matrix(1,0,0,1,0,0)" d="M 768 0 L 0 0 L 0 32 L 768 32 Z"/></clipPath><clipPath id="ClipPath-537"><path transform="matrix(1,0,0,1,0,0)" d="M 768 0 L 0 0 L 0 32 L 768 32 Z"/></clipPath><clipPath id="ClipPath-538"><path transform="matrix(1,0,0,1,0,0)" d="M 768 0 L 0 0 L 0 32 L 768 32 Z"/></clipPath><clipPath id="ClipPath-539"><path transform="matrix(1,0,0,1,0,0)" d="M 768 0 L 0 0 L 0 32 L 768 32 Z"/></clipPath><clipPath id="ClipPath-540"><path transform="matrix(1,0,0,1,0,0)" d="M 768 0 L 0 0 L 0 32 L 768 32 Z"/></clipPath><clipPath id="ClipPath-541"><path transform="matrix(1,0,0,1,0,0)" d="M 768 0 L 0 0 L 0 32 L 768 32 Z"/></clipPath><clipPath id="ClipPath-542"><path transform="matrix(1,0,0,1,0,0)" d="M 768 0 L 0 0 L 0 32 L 768 32 Z"/></clipPath><clipPath id="ClipPath-543"><path transform="matrix(1,0,0,1,0,0)" d="M 768 0 L 0 0 L 0 32 L 768 32 Z"/></clipPath></defs></svg>
